<svg xmlns="http://www.w3.org/2000/svg" xmlns:xlink="http://www.w3.org/1999/xlink" version="1.1" width="1000" height="1000" viewBox="0 0 1000 1000" xml:space="preserve">
<desc>Created with Fabric.js 3.5.0</desc>
<defs>
</defs>
<rect x="0" y="0" width="100%" height="100%" fill="rgba(255,255,255,0)"/>
<g transform="matrix(1.1364 0 0 1.1364 500.0145 500.0145)" id="622919">
<g style="" vector-effect="non-scaling-stroke">
		<g transform="matrix(1.4465 0 0 1.4465 -289.1802 11.7731)" id="Capa_1">
<path style="stroke: none; stroke-width: 1; stroke-dasharray: none; stroke-linecap: butt; stroke-dashoffset: 0; stroke-linejoin: miter; stroke-miterlimit: 4; is-custom-font: none; font-file-url: none; fill: rgb(255,255,255); fill-rule: nonzero; opacity: 1;" transform=" translate(-76.6115, -284.665)" d="M 76.774 179.141 c -9.529 0 -17.614 3.323 -24.26 9.969 c -6.646 6.646 -9.97 14.621 -9.97 23.929 v 142.914 c 0 9.541 3.323 17.619 9.97 24.266 c 6.646 6.646 14.731 9.97 24.26 9.97 c 9.522 0 17.558 -3.323 24.101 -9.97 c 6.53 -6.646 9.804 -14.725 9.804 -24.266 V 213.039 c 0 -9.309 -3.323 -17.283 -9.97 -23.929 C 94.062 182.464 86.082 179.141 76.774 179.141 z" stroke-linecap="round"/>
</g>
		<g transform="matrix(1.4465 0 0 1.4465 -0.2359 -274.5181)" id="Capa_1">
<path style="stroke: none; stroke-width: 1; stroke-dasharray: none; stroke-linecap: butt; stroke-dashoffset: 0; stroke-linejoin: miter; stroke-miterlimit: 4; is-custom-font: none; font-file-url: none; fill: rgb(255,255,255); fill-rule: nonzero; opacity: 1;" transform=" translate(-276.364, -86.7486)" d="M 351.972 50.847 L 375.57 7.315 c 1.549 -2.882 0.998 -5.092 -1.658 -6.646 c -2.883 -1.34 -5.098 -0.661 -6.646 1.989 l -23.928 43.88 c -21.055 -9.309 -43.324 -13.972 -66.807 -13.972 c -23.488 0 -45.759 4.664 -66.806 13.972 l -23.929 -43.88 c -1.555 -2.65 -3.77 -3.323 -6.646 -1.989 c -2.662 1.561 -3.213 3.764 -1.658 6.646 l 23.599 43.532 c -23.929 12.203 -42.987 29.198 -57.167 51.022 c -14.18 21.836 -21.273 45.698 -21.273 71.628 h 307.426 c 0 -25.924 -7.094 -49.787 -21.273 -71.628 C 394.623 80.045 375.675 63.05 351.972 50.847 z M 215.539 114.165 c -2.552 2.558 -5.6 3.831 -9.143 3.831 c -3.55 0 -6.536 -1.273 -8.972 -3.831 c -2.436 -2.546 -3.654 -5.582 -3.654 -9.137 c 0 -3.543 1.218 -6.585 3.654 -9.137 c 2.436 -2.546 5.429 -3.819 8.972 -3.819 s 6.591 1.273 9.143 3.819 c 2.546 2.558 3.825 5.594 3.825 9.137 C 219.357 108.577 218.079 111.619 215.539 114.165 z M 355.625 114.165 c -2.441 2.558 -5.434 3.831 -8.971 3.831 c -3.551 0 -6.598 -1.273 -9.145 -3.831 c -2.551 -2.546 -3.824 -5.582 -3.824 -9.137 c 0 -3.543 1.273 -6.585 3.824 -9.137 c 2.547 -2.546 5.594 -3.819 9.145 -3.819 c 3.543 0 6.529 1.273 8.971 3.819 c 2.438 2.558 3.654 5.594 3.654 9.137 C 359.279 108.577 358.062 111.619 355.625 114.165 z" stroke-linecap="round"/>
</g>
		<g transform="matrix(1.4465 0 0 1.4465 -0.016 134.1247)" id="Capa_1">
<path style="stroke: none; stroke-width: 1; stroke-dasharray: none; stroke-linecap: butt; stroke-dashoffset: 0; stroke-linejoin: miter; stroke-miterlimit: 4; is-custom-font: none; font-file-url: none; fill: rgb(255,255,255); fill-rule: nonzero; opacity: 1;" transform=" translate(-276.516, -369.2495)" d="M 123.971 406.804 c 0 10.202 3.543 18.838 10.63 25.925 c 7.093 7.087 15.729 10.63 25.924 10.63 h 24.596 l 0.337 75.454 c 0 9.528 3.323 17.619 9.969 24.266 s 14.627 9.97 23.929 9.97 c 9.523 0 17.613 -3.323 24.26 -9.97 s 9.97 -14.737 9.97 -24.266 v -75.447 h 45.864 v 75.447 c 0 9.528 3.322 17.619 9.969 24.266 s 14.73 9.97 24.26 9.97 c 9.523 0 17.613 -3.323 24.26 -9.97 s 9.969 -14.737 9.969 -24.266 v -75.447 h 24.928 c 9.969 0 18.494 -3.544 25.594 -10.631 c 7.086 -7.087 10.631 -15.723 10.631 -25.924 V 185.45 H 123.971 V 406.804 z" stroke-linecap="round"/>
</g>
		<g transform="matrix(1.4465 0 0 1.4465 289.1833 11.7731)" id="Capa_1">
<path style="stroke: none; stroke-width: 1; stroke-dasharray: none; stroke-linecap: butt; stroke-dashoffset: 0; stroke-linejoin: miter; stroke-miterlimit: 4; is-custom-font: none; font-file-url: none; fill: rgb(255,255,255); fill-rule: nonzero; opacity: 1;" transform=" translate(-476.44, -284.665)" d="M 476.275 179.141 c -9.309 0 -17.283 3.274 -23.93 9.804 c -6.646 6.542 -9.969 14.578 -9.969 24.094 v 142.914 c 0 9.541 3.322 17.619 9.969 24.266 s 14.627 9.97 23.93 9.97 c 9.523 0 17.613 -3.323 24.26 -9.97 s 9.969 -14.725 9.969 -24.266 V 213.039 c 0 -9.517 -3.322 -17.552 -9.969 -24.094 C 493.888 182.415 485.798 179.141 476.275 179.141 z" stroke-linecap="round"/>
</g>
</g>
</g>
</svg>