<svg xmlns="http://www.w3.org/2000/svg" xmlns:xlink="http://www.w3.org/1999/xlink" version="1.1" width="1000" height="1000" viewBox="0 0 1000 1000" xml:space="preserve">
<desc>Created with Fabric.js 3.5.0</desc>
<defs>
</defs>
<rect x="0" y="0" width="100%" height="100%" fill="rgba(255,255,255,0)"/>
<g transform="matrix(30.8773 0 0 30.8773 499.9999 499.9999)" id="635961">
<path style="stroke: none; stroke-width: 1; stroke-dasharray: none; stroke-linecap: butt; stroke-dashoffset: 0; stroke-linejoin: miter; stroke-miterlimit: 4; is-custom-font: none; font-file-url: none; fill: rgb(255,255,255); fill-rule: nonzero; opacity: 1;" vector-effect="non-scaling-stroke" transform=" translate(-16.0075, -15.9995)" d="M 31.995 8.167 c 0 -0.984 -0.083 -1.964 -0.318 -2.922 c -0.422 -1.745 -1.417 -3.078 -2.906 -4.057 c -0.766 -0.5 -1.609 -0.807 -2.505 -0.969 c -0.688 -0.125 -1.385 -0.182 -2.083 -0.198 c -0.052 -0.005 -0.109 -0.016 -0.167 -0.021 h -16.031 c -0.203 0.016 -0.406 0.026 -0.609 0.036 c -0.995 0.057 -1.984 0.161 -2.922 0.536 c -1.781 0.703 -3.068 1.932 -3.818 3.703 c -0.26 0.599 -0.391 1.234 -0.484 1.88 c -0.078 0.521 -0.12 1.047 -0.135 1.573 c 0 0.042 -0.01 0.083 -0.01 0.125 v 16.297 c 0.01 0.188 0.021 0.375 0.031 0.563 c 0.068 1.089 0.208 2.167 0.667 3.167 c 0.865 1.891 2.318 3.135 4.313 3.734 c 0.557 0.172 1.141 0.25 1.724 0.302 c 0.74 0.073 1.479 0.083 2.219 0.083 h 14.708 c 0.698 0 1.396 -0.047 2.094 -0.135 c 1.099 -0.141 2.13 -0.464 3.063 -1.078 c 1.12 -0.74 1.964 -1.719 2.505 -2.943 c 0.25 -0.563 0.391 -1.161 0.495 -1.766 c 0.151 -0.901 0.182 -1.813 0.182 -2.724 c -0.005 -5.063 0 -10.125 -0.005 -15.188 z M 23.432 13.484 v 7.615 c 0 0.557 -0.078 1.104 -0.328 1.609 c -0.385 0.786 -1.01 1.281 -1.849 1.521 c -0.464 0.135 -0.943 0.208 -1.427 0.229 c -1.266 0.063 -2.365 -0.797 -2.589 -2.047 c -0.193 -1.031 0.302 -2.167 1.385 -2.698 c 0.427 -0.208 0.891 -0.333 1.354 -0.427 c 0.505 -0.109 1.01 -0.208 1.51 -0.323 c 0.37 -0.083 0.609 -0.307 0.682 -0.688 c 0.021 -0.083 0.026 -0.172 0.026 -0.255 c 0 -2.422 0 -4.844 0 -7.26 c 0 -0.083 -0.016 -0.167 -0.036 -0.245 c -0.052 -0.203 -0.198 -0.323 -0.406 -0.313 c -0.214 0.01 -0.422 0.047 -0.63 0.089 c -1.016 0.198 -2.031 0.401 -3.042 0.609 l -4.932 0.995 c -0.021 0.005 -0.047 0.016 -0.068 0.016 c -0.37 0.104 -0.5 0.271 -0.516 0.656 c -0.005 0.057 0 0.115 0 0.172 c -0.005 3.469 0 6.938 -0.005 10.406 c 0 0.563 -0.063 1.115 -0.286 1.635 c -0.37 0.854 -1.026 1.391 -1.911 1.646 c -0.469 0.135 -0.948 0.214 -1.438 0.229 c -1.276 0.047 -2.339 -0.802 -2.557 -2.057 c -0.188 -1.083 0.307 -2.25 1.536 -2.771 c 0.479 -0.198 0.974 -0.307 1.479 -0.411 c 0.38 -0.078 0.766 -0.156 1.146 -0.234 c 0.51 -0.109 0.776 -0.432 0.802 -0.953 v -0.198 c 0 -3.948 0 -7.896 0 -11.844 c 0 -0.167 0.021 -0.333 0.057 -0.495 c 0.094 -0.38 0.365 -0.599 0.729 -0.688 c 0.339 -0.089 0.688 -0.151 1.031 -0.224 c 0.979 -0.198 1.953 -0.396 2.932 -0.589 l 3.026 -0.615 c 0.896 -0.177 1.786 -0.359 2.682 -0.536 c 0.292 -0.057 0.589 -0.12 0.885 -0.141 c 0.411 -0.036 0.698 0.224 0.74 0.641 c 0.01 0.099 0.016 0.198 0.016 0.297 c 0 2.547 0 5.094 0 7.641 z" stroke-linecap="round"/>
</g>
</svg>