<svg xmlns="http://www.w3.org/2000/svg" xmlns:xlink="http://www.w3.org/1999/xlink" version="1.1" width="1000" height="1000" viewBox="0 0 1000 1000" xml:space="preserve">
<desc>Created with Fabric.js 3.5.0</desc>
<defs>
</defs>
<rect x="0" y="0" width="100%" height="100%" fill="rgba(255,255,255,0)"/>
<g transform="matrix(1.3217 0 0 1.3217 499.9915 499.9915)" id="133556">
<g style="" vector-effect="non-scaling-stroke">
		<g transform="matrix(33.3333 0 0 33.3333 -100.0005 -33.3338)">
<path style="stroke: none; stroke-width: 1; stroke-dasharray: none; stroke-linecap: butt; stroke-dashoffset: 0; stroke-linejoin: miter; stroke-miterlimit: 4; is-custom-font: none; font-file-url: none; fill: rgb(255,255,255); fill-rule: nonzero; opacity: 1;" transform=" translate(-9, -11)" d="M 9.4 7.53333 C 9.2 7.26667 8.8 7.26667 8.6 7.53333 L 6.225 10.7 C 6.09167 10.8778 6.09167 11.1222 6.225 11.3 L 8.6 14.4667 C 8.8 14.7333 9.2 14.7333 9.4 14.4667 L 11.775 11.3 C 11.9083 11.1222 11.9083 10.8778 11.775 10.7 L 9.4 7.53333 Z" stroke-linecap="round"/>
</g>
		<g transform="matrix(33.3333 0 0 33.3333 -233.3334 -216.6667)">
<path style="stroke: none; stroke-width: 1; stroke-dasharray: none; stroke-linecap: butt; stroke-dashoffset: 0; stroke-linejoin: miter; stroke-miterlimit: 4; is-custom-font: none; font-file-url: none; fill: rgb(255,255,255); fill-rule: nonzero; opacity: 1;" transform=" translate(-5, -5.5)" d="M 4.09245 5.63868 C 4.03647 5.5547 4.03647 5.4453 4.09245 5.36133 L 4.79199 4.31202 C 4.89094 4.16359 5.10906 4.16359 5.20801 4.31202 L 5.90755 5.36132 C 5.96353 5.4453 5.96353 5.5547 5.90755 5.63867 L 5.20801 6.68798 C 5.10906 6.83641 4.89094 6.83641 4.79199 6.68798 L 4.09245 5.63868 Z" stroke-linecap="round"/>
</g>
		<g transform="matrix(33.3333 0 0 33.3333 33.3328 149.9999)">
<path style="stroke: none; stroke-width: 1; stroke-dasharray: none; stroke-linecap: butt; stroke-dashoffset: 0; stroke-linejoin: miter; stroke-miterlimit: 4; is-custom-font: none; font-file-url: none; fill: rgb(255,255,255); fill-rule: nonzero; opacity: 1;" transform=" translate(-13, -16.5)" d="M 13.208 15.312 C 13.1091 15.1636 12.8909 15.1636 12.792 15.312 L 12.0924 16.3613 C 12.0365 16.4453 12.0365 16.5547 12.0924 16.6387 L 12.792 17.688 C 12.8909 17.8364 13.1091 17.8364 13.208 17.688 L 13.9075 16.6387 C 13.9635 16.5547 13.9635 16.4453 13.9075 16.3613 L 13.208 15.312 Z" stroke-linecap="round"/>
</g>
		<g transform="matrix(33.3333 0 0 33.3333 1.054 1.7156)">
<path style="stroke: none; stroke-width: 1; stroke-dasharray: none; stroke-linecap: butt; stroke-dashoffset: 0; stroke-linejoin: miter; stroke-miterlimit: 4; is-custom-font: none; font-file-url: none; fill: rgb(255,255,255); fill-rule: evenodd; opacity: 1;" transform=" translate(-12.0316, -12.0515)" d="M 1 4 C 1 2.34315 2.34315 1 4 1 H 14 C 15.1323 1 16.1181 1.62732 16.6288 2.55337 L 20.839 3.68148 C 22.4394 4.11031 23.3891 5.75532 22.9603 7.35572 L 19.3368 20.8787 C 18.908 22.4791 17.263 23.4288 15.6626 23 L 8.19849 21 H 4 C 2.34315 21 1 19.6569 1 18 V 4 Z M 17 18 V 4.72339 L 20.3213 5.61334 C 20.8548 5.75628 21.1714 6.30461 21.0284 6.83808 L 17.405 20.361 C 17.262 20.8945 16.7137 21.2111 16.1802 21.0681 L 15.1198 20.784 C 16.222 20.3403 17 19.261 17 18 Z M 4 3 C 3.44772 3 3 3.44772 3 4 V 18 C 3 18.5523 3.44772 19 4 19 H 14 C 14.5523 19 15 18.5523 15 18 V 4 C 15 3.44772 14.5523 3 14 3 H 4 Z" stroke-linecap="round"/>
</g>
</g>
</g>
</svg>