<svg xmlns="http://www.w3.org/2000/svg" xmlns:xlink="http://www.w3.org/1999/xlink" version="1.1" width="1000" height="1000" viewBox="0 0 1000 1000" xml:space="preserve">
<desc>Created with Fabric.js 3.5.0</desc>
<defs>
</defs>
<rect x="0" y="0" width="100%" height="100%" fill="rgba(255,255,255,0)"/>
<g transform="matrix(4.0286 0 0 4.0286 499.9946 499.9951)" id="644056">
<path style="stroke: none; stroke-width: 1; stroke-dasharray: none; stroke-linecap: butt; stroke-dashoffset: 0; stroke-linejoin: miter; stroke-miterlimit: 4; is-custom-font: none; font-file-url: none; fill: rgb(255,255,255); fill-rule: nonzero; opacity: 1;" vector-effect="non-scaling-stroke" transform=" translate(-122.686, -110.367)" d="M 31.99 1.365 C 21.287 7.72 0.2 31.945 0 38.298 v 10.516 C 0 62.144 12.46 73.86 23.773 73.86 c 13.584 0 24.902 -11.258 24.903 -24.62 c 0 13.362 10.93 24.62 24.515 24.62 c 13.586 0 24.165 -11.258 24.165 -24.62 c 0 13.362 11.622 24.62 25.207 24.62 h 0.246 c 13.586 0 25.208 -11.258 25.208 -24.62 c 0 13.362 10.58 24.62 24.164 24.62 c 13.585 0 24.515 -11.258 24.515 -24.62 c 0 13.362 11.32 24.62 24.903 24.62 c 11.313 0 23.773 -11.714 23.773 -25.046 V 38.298 c -0.2 -6.354 -21.287 -30.58 -31.988 -36.933 C 180.118 0.197 157.056 -0.005 122.685 0 c -34.37 0.003 -81.228 0.54 -90.697 1.365 z m 65.194 66.217 a 28.025 28.025 0 0 1 -4.78 6.155 c -5.128 5.014 -12.157 8.122 -19.906 8.122 a 28.482 28.482 0 0 1 -19.948 -8.126 c -1.858 -1.82 -3.27 -3.766 -4.563 -6.032 l -0.006 0.004 c -1.292 2.27 -3.092 4.215 -4.954 6.037 a 28.5 28.5 0 0 1 -19.948 8.12 c -0.934 0 -1.906 -0.258 -2.692 -0.528 c -1.092 11.372 -1.553 22.24 -1.716 30.164 l -0.002 0.045 c -0.02 4.024 -0.04 7.333 -0.06 11.93 c 0.21 23.86 -2.363 77.334 10.52 90.473 c 19.964 4.655 56.7 6.775 93.555 6.788 h 0.006 c 36.854 -0.013 73.59 -2.133 93.554 -6.788 c 12.883 -13.14 10.31 -66.614 10.52 -90.474 c -0.022 -4.596 -0.04 -7.905 -0.06 -11.93 l -0.003 -0.045 c -0.162 -7.926 -0.623 -18.793 -1.715 -30.165 c -0.786 0.27 -1.757 0.528 -2.692 0.528 a 28.5 28.5 0 0 1 -19.948 -8.12 c -1.862 -1.822 -3.662 -3.766 -4.955 -6.037 l -0.006 -0.004 c -1.294 2.266 -2.705 4.213 -4.563 6.032 a 28.48 28.48 0 0 1 -19.947 8.125 c -7.748 0 -14.778 -3.11 -19.906 -8.123 a 28.025 28.025 0 0 1 -4.78 -6.155 a 27.99 27.99 0 0 1 -4.736 6.155 a 28.49 28.49 0 0 1 -19.95 8.124 c -0.27 0 -0.54 -0.012 -0.81 -0.02 h -0.007 c -0.27 0.008 -0.54 0.02 -0.813 0.02 a 28.49 28.49 0 0 1 -19.95 -8.123 a 27.992 27.992 0 0 1 -4.736 -6.155 z m -20.486 26.49 l -0.002 0.01 h 0.015 c 8.113 0.017 15.32 0 24.25 9.746 c 7.028 -0.737 14.372 -1.105 21.722 -1.094 h 0.006 c 7.35 -0.01 14.694 0.357 21.723 1.094 c 8.93 -9.747 16.137 -9.73 24.25 -9.746 h 0.014 l -0.002 -0.01 c 3.833 0 19.166 0 29.85 30.007 L 210 165.244 c 8.504 30.624 -2.723 31.373 -16.727 31.4 c -20.768 -0.773 -32.267 -15.855 -32.267 -30.935 c -11.496 1.884 -24.907 2.826 -38.318 2.827 h -0.006 c -13.412 0 -26.823 -0.943 -38.318 -2.827 c 0 15.08 -11.5 30.162 -32.267 30.935 c -14.004 -0.027 -25.23 -0.775 -16.726 -31.4 L 46.85 124.08 C 57.534 94.073 72.867 94.073 76.7 94.073 z m 45.985 23.582 v 0.006 c -0.02 0.02 -21.863 20.08 -25.79 27.215 l 14.304 -0.573 v 12.474 c 0 0.584 5.74 0.346 11.486 0.08 h 0.006 c 5.744 0.266 11.485 0.504 11.485 -0.08 v -12.474 l 14.304 0.573 c -3.928 -7.135 -25.79 -27.215 -25.79 -27.215 v -0.006 l -0.003 0.002 z" stroke-linecap="round"/>
</g>
</svg>