<svg xmlns="http://www.w3.org/2000/svg" xmlns:xlink="http://www.w3.org/1999/xlink" version="1.1" width="1000" height="1000" viewBox="0 0 1000 1000" xml:space="preserve">
<desc>Created with Fabric.js 3.5.0</desc>
<defs>
</defs>
<rect x="0" y="0" width="100%" height="100%" fill="rgba(255,255,255,0)"/>
<g transform="matrix(0.9092 0 0 0.9092 500.0074 500.009)" id="478023">
<path style="stroke: none; stroke-width: 1; stroke-dasharray: none; stroke-linecap: butt; stroke-dashoffset: 0; stroke-linejoin: miter; stroke-miterlimit: 4; is-custom-font: none; font-file-url: none; fill: rgb(255,255,255); fill-rule: nonzero; opacity: 1;" vector-effect="non-scaling-stroke" transform=" translate(-407.05, -499.95)" d="M 788.1 340.9 c -5.8 4.5 -108.2 62.2 -108.2 190.5 c 0 148.4 130.3 200.9 134.2 202.2 c -0.6 3.2 -20.7 71.9 -68.7 141.9 c -42.8 61.6 -87.5 123.1 -155.5 123.1 s -85.5 -39.5 -164 -39.5 c -76.5 0 -103.7 40.8 -165.9 40.8 s -105.6 -57 -155.5 -127 C 46.7 790.7 0 663 0 541.8 c 0 -194.4 126.4 -297.5 250.8 -297.5 c 66.1 0 121.2 43.4 162.7 43.4 c 39.5 0 101.1 -46 176.3 -46 c 28.5 0 130.9 2.6 198.3 99.2 z m -234 -181.5 c 31.1 -36.9 53.1 -88.1 53.1 -139.3 c 0 -7.1 -0.6 -14.3 -1.9 -20.1 c -50.6 1.9 -110.8 33.7 -147.1 75.8 c -28.5 32.4 -55.1 83.6 -55.1 135.5 c 0 7.8 1.3 15.6 1.9 18.1 c 3.2 0.6 8.4 1.3 13.6 1.3 c 45.4 0 102.5 -30.4 135.5 -71.3 z" stroke-linecap="round"/>
</g>
</svg>