<svg xmlns="http://www.w3.org/2000/svg" xmlns:xlink="http://www.w3.org/1999/xlink" version="1.1" width="1000" height="1000" viewBox="0 0 1000 1000" xml:space="preserve">
<desc>Created with Fabric.js 3.5.0</desc>
<defs>
</defs>
<rect x="0" y="0" width="100%" height="100%" fill="rgba(255,255,255,0)"/>
<g transform="matrix(29.9873 0 0 29.9873 499.9999 499.9999)" id="237566">
<path style="stroke: none; stroke-width: 1; stroke-dasharray: none; stroke-linecap: butt; stroke-dashoffset: 0; stroke-linejoin: miter; stroke-miterlimit: 4; is-custom-font: none; font-file-url: none; fill: rgb(255,255,255); fill-rule: nonzero; opacity: 1;" vector-effect="non-scaling-stroke" transform=" translate(-16, -16.0018)" d="M 24.182 18.599 c -0.427 0.297 -0.901 0.474 -1.411 0.552 c -0.51 0.083 -1.016 0.068 -1.521 0.068 h -10.5 c -0.51 0 -1.016 0.021 -1.526 -0.068 c -0.51 -0.083 -0.979 -0.255 -1.411 -0.552 c -0.854 -0.604 -1.365 -1.563 -1.365 -2.604 c 0 -1.057 0.516 -2.016 1.37 -2.599 c 0.417 -0.297 0.896 -0.479 1.396 -0.557 c 0.5 -0.083 1 -0.083 1.526 -0.083 h 10.5 c 0.5 0 1.016 -0.016 1.516 0.063 s 0.984 0.26 1.401 0.542 c 0.865 0.578 1.365 1.557 1.365 2.599 c 0 1.036 -0.526 2 -1.38 2.599 z M 28.411 8.526 c -1.125 -0.906 -2.417 -1.531 -3.818 -1.865 c -0.802 -0.193 -1.604 -0.281 -2.432 -0.307 c -0.599 -0.021 -1.198 -0.01 -1.818 -0.01 h -8.661 c -0.609 0 -1.224 -0.01 -1.833 0.01 c -0.823 0.026 -1.63 0.109 -2.432 0.307 c -1.401 0.339 -2.698 0.964 -3.818 1.865 c -2.281 1.823 -3.599 4.568 -3.599 7.474 c 0 2.911 1.318 5.656 3.583 7.474 c 1.13 0.906 2.422 1.531 3.823 1.87 c 0.802 0.193 1.609 0.281 2.432 0.302 c 0.599 0.021 1.198 0.016 1.818 0.016 h 8.661 c 0.599 0 1.219 0.005 1.818 -0.016 c 0.823 -0.021 1.62 -0.109 2.417 -0.302 c 1.401 -0.344 2.682 -0.969 3.823 -1.87 c 2.307 -1.823 3.625 -4.568 3.625 -7.474 s -1.318 -5.656 -3.589 -7.474 z" stroke-linecap="round"/>
</g>
</svg>