<svg xmlns="http://www.w3.org/2000/svg" xmlns:xlink="http://www.w3.org/1999/xlink" version="1.1" width="1000" height="1000" viewBox="0 0 1000 1000" xml:space="preserve">
<desc>Created with Fabric.js 3.5.0</desc>
<defs>
</defs>
<rect x="0" y="0" width="100%" height="100%" fill="rgba(255,255,255,0)"/>
<g transform="matrix(61.242 0 0 61.242 500.0002 500.0002)" id="431964">
<path style="stroke: none; stroke-width: 1; stroke-dasharray: none; stroke-linecap: butt; stroke-dashoffset: 0; stroke-linejoin: miter; stroke-miterlimit: 4; is-custom-font: none; font-file-url: none; fill: rgb(255,255,255); fill-rule: nonzero; opacity: 1;" vector-effect="non-scaling-stroke" transform=" translate(-8, -8)" d="M 8 0 a 8 8 0 1 0 0 16 A 8 8 0 0 0 8 0 m 3.669 11.538 a 0.5 0.5 0 0 1 -0.686 0.165 c -1.879 -1.147 -4.243 -1.407 -7.028 -0.77 a 0.499 0.499 0 0 1 -0.222 -0.973 c 3.048 -0.696 5.662 -0.397 7.77 0.892 a 0.5 0.5 0 0 1 0.166 0.686 m 0.979 -2.178 a 0.624 0.624 0 0 1 -0.858 0.205 c -2.15 -1.321 -5.428 -1.704 -7.972 -0.932 a 0.625 0.625 0 0 1 -0.362 -1.194 c 2.905 -0.881 6.517 -0.454 8.986 1.063 a 0.624 0.624 0 0 1 0.206 0.858 m 0.084 -2.268 C 10.154 5.56 5.9 5.419 3.438 6.166 a 0.748 0.748 0 1 1 -0.434 -1.432 c 2.825 -0.857 7.523 -0.692 10.492 1.07 a 0.747 0.747 0 1 1 -0.764 1.288" stroke-linecap="round"/>
</g>
</svg>