<svg xmlns="http://www.w3.org/2000/svg" xmlns:xlink="http://www.w3.org/1999/xlink" version="1.1" width="1000" height="1000" viewBox="0 0 1000 1000" xml:space="preserve">
<desc>Created with Fabric.js 3.5.0</desc>
<defs>
</defs>
<rect x="0" y="0" width="100%" height="100%" fill="rgba(255,255,255,0)"/>
<g transform="matrix(1.2261 0 0 1.2261 500.0028 500.0028)" id="448389">
<g style="" vector-effect="non-scaling-stroke">
		<g transform="matrix(33.3333 0 0 33.3333 -0.6671 0.8331)" id="Layer_1">
<path style="stroke: rgb(255,255,255); stroke-width: 1.95; stroke-dasharray: none; stroke-linecap: butt; stroke-dashoffset: 0; stroke-linejoin: miter; stroke-miterlimit: 10; is-custom-font: none; font-file-url: none; fill: none; fill-rule: nonzero; opacity: 1;" transform=" translate(-11.98, -12.025)" d="M 22.75 8.58 v 6.84 a 2 2 0 0 1 -2 2 H 14.93 l -1.41 -2.11 A 1.83 1.83 0 0 0 12 14.44 h 0 a 1.83 1.83 0 0 0 -1.52 0.82 L 9.07 17.37 H 3.21 a 2 2 0 0 1 -2 -2 V 8.58 a 2 2 0 0 1 2 -1.95 H 20.79 A 2 2 0 0 1 22.75 8.58 Z" stroke-linecap="round"/>
</g>
		<g transform="matrix(33.3333 0 0 33.3333 -228.0001 -65)" id="Layer_1">
<line style="stroke: rgb(255,255,255); stroke-width: 1.95; stroke-dasharray: none; stroke-linecap: butt; stroke-dashoffset: 0; stroke-linejoin: miter; stroke-miterlimit: 10; is-custom-font: none; font-file-url: none; fill: none; fill-rule: nonzero; opacity: 1;" x1="-0.98" y1="0" x2="0.98" y2="0"/>
</g>
		<g transform="matrix(33.3333 0 0 33.3333 -228.0001 65)" id="Layer_1">
<line style="stroke: rgb(255,255,255); stroke-width: 1.95; stroke-dasharray: none; stroke-linecap: butt; stroke-dashoffset: 0; stroke-linejoin: miter; stroke-miterlimit: 10; is-custom-font: none; font-file-url: none; fill: none; fill-rule: nonzero; opacity: 1;" x1="-0.98" y1="0" x2="0.98" y2="0"/>
</g>
</g>
</g>
</svg>