<svg xmlns="http://www.w3.org/2000/svg" xmlns:xlink="http://www.w3.org/1999/xlink" version="1.1" width="1000" height="1000" viewBox="0 0 1000 1000" xml:space="preserve">
<desc>Created with Fabric.js 3.5.0</desc>
<defs>
</defs>
<rect x="0" y="0" width="100%" height="100%" fill="rgba(255,255,255,0)"/>
<g transform="matrix(1.2398 0 0 1.2398 500.0184 500.0184)" id="271241">
<g style="" vector-effect="non-scaling-stroke">
		<g transform="matrix(1.6927 0 0 1.6927 88.9193 -282.7889)" id="Layer_1">
<path style="stroke: none; stroke-width: 1; stroke-dasharray: none; stroke-linecap: butt; stroke-dashoffset: 0; stroke-linejoin: miter; stroke-miterlimit: 4; is-custom-font: none; font-file-url: none; fill: rgb(255,255,255); fill-rule: nonzero; opacity: 1;" transform=" translate(-288.8385, -69.245)" d="M 246.164 10.516 v 117.458 c 29.941 -1.279 58.783 -8.32 85.349 -20.641 C 312.004 53.742 280.997 16.496 246.164 10.516 z" stroke-linecap="round"/>
</g>
		<g transform="matrix(1.6927 0 0 1.6927 -175.3475 -313.4175)" id="Layer_1">
<path style="stroke: none; stroke-width: 1; stroke-dasharray: none; stroke-linecap: butt; stroke-dashoffset: 0; stroke-linejoin: miter; stroke-miterlimit: 4; is-custom-font: none; font-file-url: none; fill: rgb(255,255,255); fill-rule: nonzero; opacity: 1;" transform=" translate(-132.718, -51.1505)" d="M 76.202 62.203 c 14.116 14.087 29.857 25.894 46.654 35.65 c 15.827 -42.792 38.936 -75.698 66.378 -93.405 C 146.157 13.148 107.336 33.558 76.202 62.203 z" stroke-linecap="round"/>
</g>
		<g transform="matrix(1.6927 0 0 1.6927 175.3591 -313.4209)" id="Layer_1">
<path style="stroke: none; stroke-width: 1; stroke-dasharray: none; stroke-linecap: butt; stroke-dashoffset: 0; stroke-linejoin: miter; stroke-miterlimit: 4; is-custom-font: none; font-file-url: none; fill: rgb(255,255,255); fill-rule: nonzero; opacity: 1;" transform=" translate(-339.9045, -51.1485)" d="M 283.379 4.449 c 27.44 17.705 50.549 50.61 66.377 93.399 c 16.801 -9.756 32.555 -21.541 46.674 -35.627 C 365.292 33.567 326.466 13.15 283.379 4.449 z" stroke-linecap="round"/>
</g>
		<g transform="matrix(1.6927 0 0 1.6927 -106.9468 100.9002)" id="Layer_1">
<path style="stroke: none; stroke-width: 1; stroke-dasharray: none; stroke-linecap: butt; stroke-dashoffset: 0; stroke-linejoin: miter; stroke-miterlimit: 4; is-custom-font: none; font-file-url: none; fill: rgb(255,255,255); fill-rule: nonzero; opacity: 1;" transform=" translate(-173.127, -295.9165)" d="M 119.803 246.165 c 0.832 35.723 6.162 69.593 14.883 99.503 c 28.599 -12.958 59.622 -20.358 91.765 -21.614 v -77.889 H 119.803 z" stroke-linecap="round"/>
</g>
		<g transform="matrix(1.6927 0 0 1.6927 -89.0936 282.2528)" id="Layer_1">
<path style="stroke: none; stroke-width: 1; stroke-dasharray: none; stroke-linecap: butt; stroke-dashoffset: 0; stroke-linejoin: miter; stroke-miterlimit: 4; is-custom-font: none; font-file-url: none; fill: rgb(255,255,255); fill-rule: nonzero; opacity: 1;" transform=" translate(-183.674, -403.054)" d="M 140.898 364.737 c 19.496 53.883 50.598 91.361 85.552 97.363 V 344.008 C 196.425 345.288 167.515 352.359 140.898 364.737 z" stroke-linecap="round"/>
</g>
		<g transform="matrix(1.6927 0 0 1.6927 301.4473 -143.8827)" id="Layer_1">
<path style="stroke: none; stroke-width: 1; stroke-dasharray: none; stroke-linecap: butt; stroke-dashoffset: 0; stroke-linejoin: miter; stroke-miterlimit: 4; is-custom-font: none; font-file-url: none; fill: rgb(255,255,255); fill-rule: nonzero; opacity: 1;" transform=" translate(-414.3935, -151.3065)" d="M 410.372 76.163 c -16.336 16.303 -34.586 29.978 -54.2 40.932 c 9.732 32.468 15.524 69.566 16.352 109.355 h 100.091 C 470.24 168.558 447.081 116.041 410.372 76.163 z" stroke-linecap="round"/>
</g>
		<g transform="matrix(1.6927 0 0 1.6927 -301.4511 -143.8886)" id="Layer_1">
<path style="stroke: none; stroke-width: 1; stroke-dasharray: none; stroke-linecap: butt; stroke-dashoffset: 0; stroke-linejoin: miter; stroke-miterlimit: 4; is-custom-font: none; font-file-url: none; fill: rgb(255,255,255); fill-rule: nonzero; opacity: 1;" transform=" translate(-58.22, -151.303)" d="M 62.248 76.155 C 25.536 116.037 2.376 168.554 0 226.451 h 100.089 c 0.828 -39.785 6.62 -76.884 16.351 -109.348 C 96.827 106.147 78.587 92.461 62.248 76.155 z" stroke-linecap="round"/>
</g>
		<g transform="matrix(1.6927 0 0 1.6927 -106.9468 -101.376)" id="Layer_1">
<path style="stroke: none; stroke-width: 1; stroke-dasharray: none; stroke-linecap: butt; stroke-dashoffset: 0; stroke-linejoin: miter; stroke-miterlimit: 4; is-custom-font: none; font-file-url: none; fill: rgb(255,255,255); fill-rule: nonzero; opacity: 1;" transform=" translate(-173.127, -176.418)" d="M 134.854 126.386 c -8.818 30.049 -14.213 64.117 -15.051 100.064 h 106.648 v -78.525 C 194.373 146.672 163.408 139.297 134.854 126.386 z" stroke-linecap="round"/>
</g>
		<g transform="matrix(1.6927 0 0 1.6927 -88.9244 -282.7897)" id="Layer_1">
<path style="stroke: none; stroke-width: 1; stroke-dasharray: none; stroke-linecap: butt; stroke-dashoffset: 0; stroke-linejoin: miter; stroke-miterlimit: 4; is-custom-font: none; font-file-url: none; fill: rgb(255,255,255); fill-rule: nonzero; opacity: 1;" transform=" translate(-183.774, -69.2445)" d="M 141.098 107.338 c 26.563 12.32 55.404 19.357 85.352 20.635 V 10.516 C 191.615 16.497 160.607 53.745 141.098 107.338 z" stroke-linecap="round"/>
</g>
		<g transform="matrix(1.6927 0 0 1.6927 -301.5949 143.6087)" id="Layer_1">
<path style="stroke: none; stroke-width: 1; stroke-dasharray: none; stroke-linecap: butt; stroke-dashoffset: 0; stroke-linejoin: miter; stroke-miterlimit: 4; is-custom-font: none; font-file-url: none; fill: rgb(255,255,255); fill-rule: nonzero; opacity: 1;" transform=" translate(-58.135, -321.1475)" d="M 100.089 246.165 H 0 C 2.369 303.899 25.399 356.29 61.934 396.13 c 16.37 -16.398 34.663 -30.148 54.336 -41.157 C 106.638 322.639 100.912 285.728 100.089 246.165 z" stroke-linecap="round"/>
</g>
		<g transform="matrix(1.6927 0 0 1.6927 301.5912 143.5893)" id="Layer_1">
<path style="stroke: none; stroke-width: 1; stroke-dasharray: none; stroke-linecap: butt; stroke-dashoffset: 0; stroke-linejoin: miter; stroke-miterlimit: 4; is-custom-font: none; font-file-url: none; fill: rgb(255,255,255); fill-rule: nonzero; opacity: 1;" transform=" translate(-414.4785, -321.136)" d="M 372.524 246.165 c -0.823 39.566 -6.55 76.477 -16.183 108.814 c 19.619 10.978 37.874 24.675 54.207 41.007 l 0.148 0.121 c 36.511 -39.836 59.551 -92.221 61.92 -149.942 H 372.524 z" stroke-linecap="round"/>
</g>
		<g transform="matrix(1.6927 0 0 1.6927 175.6468 312.9765)" id="Layer_1">
<path style="stroke: none; stroke-width: 1; stroke-dasharray: none; stroke-linecap: butt; stroke-dashoffset: 0; stroke-linejoin: miter; stroke-miterlimit: 4; is-custom-font: none; font-file-url: none; fill: rgb(255,255,255); fill-rule: nonzero; opacity: 1;" transform=" translate(-340.0745, -421.2045)" d="M 396.611 409.924 c -14.111 -14.109 -29.87 -25.905 -46.67 -35.682 c -15.832 43.041 -39.01 76.148 -66.562 93.925 c 43.243 -8.733 82.206 -29.258 113.391 -58.077 L 396.611 409.924 z" stroke-linecap="round"/>
</g>
		<g transform="matrix(1.6927 0 0 1.6927 106.944 -101.3785)" id="Layer_1">
<path style="stroke: none; stroke-width: 1; stroke-dasharray: none; stroke-linecap: butt; stroke-dashoffset: 0; stroke-linejoin: miter; stroke-miterlimit: 4; is-custom-font: none; font-file-url: none; fill: rgb(255,255,255); fill-rule: nonzero; opacity: 1;" transform=" translate(-299.487, -176.4165)" d="M 337.76 126.383 c -28.558 12.913 -59.526 20.289 -91.596 21.542 v 78.525 H 352.81 C 351.972 190.502 346.579 156.434 337.76 126.383 z" stroke-linecap="round"/>
</g>
		<g transform="matrix(1.6927 0 0 1.6927 -175.6378 312.9715)" id="Layer_1">
<path style="stroke: none; stroke-width: 1; stroke-dasharray: none; stroke-linecap: butt; stroke-dashoffset: 0; stroke-linejoin: miter; stroke-miterlimit: 4; is-custom-font: none; font-file-url: none; fill: rgb(255,255,255); fill-rule: nonzero; opacity: 1;" transform=" translate(-132.5465, -421.2015)" d="M 122.67 374.236 c -16.859 9.812 -32.662 21.67 -46.811 35.849 c 31.193 28.815 70.136 49.351 113.375 58.082 C 161.682 450.39 138.503 417.28 122.67 374.236 z" stroke-linecap="round"/>
</g>
		<g transform="matrix(1.6927 0 0 1.6927 89.0885 282.252)" id="Layer_1">
<path style="stroke: none; stroke-width: 1; stroke-dasharray: none; stroke-linecap: butt; stroke-dashoffset: 0; stroke-linejoin: miter; stroke-miterlimit: 4; is-custom-font: none; font-file-url: none; fill: rgb(255,255,255); fill-rule: nonzero; opacity: 1;" transform=" translate(-288.9385, -403.0535)" d="M 246.164 344.007 V 462.1 c 34.952 -6.002 66.053 -43.477 85.549 -97.359 C 305.093 352.363 276.182 345.288 246.164 344.007 z" stroke-linecap="round"/>
</g>
		<g transform="matrix(1.6927 0 0 1.6927 106.944 100.9028)" id="Layer_1">
<path style="stroke: none; stroke-width: 1; stroke-dasharray: none; stroke-linecap: butt; stroke-dashoffset: 0; stroke-linejoin: miter; stroke-miterlimit: 4; is-custom-font: none; font-file-url: none; fill: rgb(255,255,255); fill-rule: nonzero; opacity: 1;" transform=" translate(-299.487, -295.918)" d="M 246.164 246.165 v 77.889 c 32.133 1.256 63.161 8.658 91.764 21.617 c 8.721 -29.913 14.05 -63.782 14.882 -99.506 H 246.164 z" stroke-linecap="round"/>
</g>
</g>
</g>
</svg>