<svg xmlns="http://www.w3.org/2000/svg" xmlns:xlink="http://www.w3.org/1999/xlink" version="1.1" width="1000" height="1000" viewBox="0 0 1000 1000" xml:space="preserve">
<desc>Created with Fabric.js 3.5.0</desc>
<defs>
</defs>
<rect x="0" y="0" width="100%" height="100%" fill="rgba(255,255,255,0)"/>
<g transform="matrix(61.7172 0 0 61.7172 499.9998 499.9999)" id="527314">
<path style="stroke: none; stroke-width: 1; stroke-dasharray: none; stroke-linecap: butt; stroke-dashoffset: 0; stroke-linejoin: miter; stroke-miterlimit: 4; is-custom-font: none; font-file-url: none; fill: rgb(255,255,255); fill-rule: nonzero; opacity: 1;" vector-effect="non-scaling-stroke" transform=" translate(-7.9995, -7.6185)" d="M 8.051 1.999 h 0.089 c 0.822 0.003 4.987 0.033 6.11 0.335 a 2.01 2.01 0 0 1 1.415 1.42 c 0.101 0.38 0.172 0.883 0.22 1.402 l 0.01 0.104 l 0.022 0.26 l 0.008 0.104 c 0.065 0.914 0.073 1.77 0.074 1.957 v 0.075 c -0.001 0.194 -0.01 1.108 -0.082 2.06 l -0.008 0.105 l -0.009 0.104 c -0.05 0.572 -0.124 1.14 -0.235 1.558 a 2.01 2.01 0 0 1 -1.415 1.42 c -1.16 0.312 -5.569 0.334 -6.18 0.335 h -0.142 c -0.309 0 -1.587 -0.006 -2.927 -0.052 l -0.17 -0.006 l -0.087 -0.004 l -0.171 -0.007 l -0.171 -0.007 c -1.11 -0.049 -2.167 -0.128 -2.654 -0.26 a 2.01 2.01 0 0 1 -1.415 -1.419 c -0.111 -0.417 -0.185 -0.986 -0.235 -1.558 L 0.09 9.82 l -0.008 -0.104 A 31 31 0 0 1 0 7.68 v -0.123 c 0.002 -0.215 0.01 -0.958 0.064 -1.778 l 0.007 -0.103 l 0.003 -0.052 l 0.008 -0.104 l 0.022 -0.26 l 0.01 -0.104 c 0.048 -0.519 0.119 -1.023 0.22 -1.402 a 2.01 2.01 0 0 1 1.415 -1.42 c 0.487 -0.13 1.544 -0.21 2.654 -0.26 l 0.17 -0.007 l 0.172 -0.006 l 0.086 -0.003 l 0.171 -0.007 A 100 100 0 0 1 7.858 2 z M 6.4 5.209 v 4.818 l 4.157 -2.408 z" stroke-linecap="round"/>
</g>
</svg>